<?xml version="1.0" encoding="UTF-8" standalone="no"?>
<!-- Created with Inkscape (http://www.inkscape.org/) -->
<svg
   xmlns:dc="http://purl.org/dc/elements/1.1/"
   xmlns:cc="http://web.resource.org/cc/"
   xmlns:rdf="http://www.w3.org/1999/02/22-rdf-syntax-ns#"
   xmlns:svg="http://www.w3.org/2000/svg"
   xmlns="http://www.w3.org/2000/svg"
   xmlns:sodipodi="http://sodipodi.sourceforge.net/DTD/sodipodi-0.dtd"
   xmlns:inkscape="http://www.inkscape.org/namespaces/inkscape"
   width="320"
   height="166"
   id="svg2"
   sodipodi:version="0.32"
   inkscape:version="0.44"
   version="1.0"
   sodipodi:docbase="C:\Documents and Settings\Administrator\My Documents\My Pictures\Wikipedia\Arquitectura de memoria"
   sodipodi:docname="Memoria expandida 2.svg">
  <defs
     id="defs4" />
  <sodipodi:namedview
     id="base"
     pagecolor="#ffffff"
     bordercolor="#666666"
     borderopacity="1.0"
     gridtolerance="10000"
     guidetolerance="10"
     objecttolerance="10"
     inkscape:pageopacity="0.0"
     inkscape:pageshadow="2"
     inkscape:zoom="2.8"
     inkscape:cx="182.82805"
     inkscape:cy="106.40462"
     inkscape:document-units="px"
     inkscape:current-layer="layer1"
     width="320px"
     height="166px"
     inkscape:window-width="1247"
     inkscape:window-height="973"
     inkscape:window-x="-4"
     inkscape:window-y="-4" />
  <metadata
     id="metadata7">
    <rdf:RDF>
      <cc:Work
         rdf:about="">
        <dc:format>image/svg+xml</dc:format>
        <dc:type
           rdf:resource="http://purl.org/dc/dcmitype/StillImage" />
      </cc:Work>
    </rdf:RDF>
  </metadata>
  <g
     inkscape:label="Layer 1"
     inkscape:groupmode="layer"
     id="layer1">
    <polygon
       style="fill:white"
       points="33.05,10.05 41.05,6.05 51.05,6.05 43.05,10.05 33.05,10.05 "
       id="polygon1874"
       transform="matrix(10.61044,0,0,10.61044,-334.3252,7.278666)" />
    <polygon
       style="fill:none;fill-opacity:0;stroke:black;stroke-width:0.1"
       points="33.05,10.05 41.05,6.05 51.05,6.05 43.05,10.05 33.05,10.05 "
       id="polygon1876"
       transform="matrix(10.61044,0,0,10.61044,-334.3252,7.278666)" />
    <polygon
       style="fill:white"
       points="41.05,6.05 49.05,2.05 59.05,2.05 51.05,6.05 41.05,6.05 "
       id="polygon1878"
       transform="matrix(10.61044,0,0,10.61044,-334.3252,7.278666)" />
    <polygon
       style="fill:none;fill-opacity:0;stroke:black;stroke-width:0.1"
       points="41.05,6.05 49.05,2.05 59.05,2.05 51.05,6.05 41.05,6.05 "
       id="polygon1880"
       transform="matrix(10.61044,0,0,10.61044,-334.3252,7.278666)" />
    <polygon
       style="fill:yellow"
       points="43.05,5.05 45.05,4.05 55.05,4.05 53.05,5.05 43.05,5.05 "
       id="polygon1882"
       transform="matrix(10.61044,0,0,10.61044,-334.3252,7.278666)" />
    <polygon
       style="fill:none;fill-opacity:0;stroke:black;stroke-width:0.1"
       points="43.05,5.05 45.05,4.05 55.05,4.05 53.05,5.05 43.05,5.05 "
       id="polygon1884"
       transform="matrix(10.61044,0,0,10.61044,-334.3252,7.278666)" />
    <polygon
       style="fill:yellow"
       points="43.05,4.05 45.05,3.05 55.05,3.05 53.05,4.05 43.05,4.05 "
       id="polygon1886"
       transform="matrix(10.61044,0,0,10.61044,-334.3252,7.278666)" />
    <polygon
       style="fill:none;fill-opacity:0;stroke:black;stroke-width:0.1"
       points="43.05,4.05 45.05,3.05 55.05,3.05 53.05,4.05 43.05,4.05 "
       id="polygon1888"
       transform="matrix(10.61044,0,0,10.61044,-334.3252,7.278666)" />
    <polygon
       style="fill:yellow"
       points="43.05,3.05 45.05,2.05 55.05,2.05 53.05,3.05 43.05,3.05 "
       id="polygon1890"
       transform="matrix(10.61044,0,0,10.61044,-334.3252,7.278666)" />
    <polygon
       style="fill:none;fill-opacity:0;stroke:black;stroke-width:0.1"
       points="43.05,3.05 45.05,2.05 55.05,2.05 53.05,3.05 43.05,3.05 "
       id="polygon1892"
       transform="matrix(10.61044,0,0,10.61044,-334.3252,7.278666)" />
    <polygon
       style="fill:yellow"
       points="43.05,2.05 45.05,1.05 55.05,1.05 53.05,2.05 43.05,2.05 "
       id="polygon1894"
       transform="matrix(10.61044,0,0,10.61044,-334.3252,7.278666)" />
    <polygon
       style="fill:none;fill-opacity:0;stroke:black;stroke-width:0.1"
       points="43.05,2.05 45.05,1.05 55.05,1.05 53.05,2.05 43.05,2.05 "
       id="polygon1896"
       transform="matrix(10.61044,0,0,10.61044,-334.3252,7.278666)" />
    <text
       style="font-size:10.61044025px;font-style:normal;font-weight:700;text-anchor:middle;fill:black;font-family:sans"
       x="97.064529"
       y="138.84811"
       id="text1898">Conventional</text>
    <text
       style="font-size:10.61044025px;font-style:normal;font-weight:700;text-anchor:middle;fill:black;font-family:sans"
       x="97.064529"
       y="149.45856"
       id="text1900">memory</text>
    <polygon
       style="fill:white"
       points="40.3,11.05 40.3,10.55 40.05,10.55 40.55,10.05 41.05,10.55 40.8,10.55 40.8,11.05 40.3,11.05 "
       id="polygon1902"
       transform="matrix(10.61044,0,0,10.61044,-334.3252,7.278666)" />
    <polygon
       style="fill:none;fill-opacity:0;stroke:black;stroke-width:0.1"
       points="40.3,11.05 40.3,10.55 40.05,10.55 40.55,10.05 41.05,10.55 40.8,10.55 40.8,11.05 40.3,11.05 "
       id="polygon1904"
       transform="matrix(10.61044,0,0,10.61044,-334.3252,7.278666)" />
    <polygon
       style="fill:none;fill-opacity:0;stroke:black;stroke-width:0.01"
       points="40.3,11.05 40.3,10.55 40.05,10.55 40.55,10.05 41.05,10.55 40.8,10.55 40.8,11.05 40.3,11.05 "
       id="polygon1906"
       transform="matrix(10.61044,0,0,10.61044,-334.3252,7.278666)" />
    <text
       style="font-size:10.61044025px;font-style:normal;font-weight:700;text-anchor:middle;fill:black;font-family:sans"
       x="258.87375"
       y="81.551849"
       id="text1908">UMA</text>
    <polygon
       style="fill:white"
       points="42.05,3.3 42.55,3.3 42.55,3.05 43.05,3.55 42.55,4.05 42.55,3.8 42.05,3.8 42.05,3.3 "
       id="polygon1910"
       transform="matrix(10.61044,0,0,10.61044,-334.3252,7.278666)" />
    <polygon
       style="fill:none;fill-opacity:0;stroke:black;stroke-width:0.1"
       points="42.05,3.3 42.55,3.3 42.55,3.05 43.05,3.55 42.55,4.05 42.55,3.8 42.05,3.8 42.05,3.3 "
       id="polygon1912"
       transform="matrix(10.61044,0,0,10.61044,-334.3252,7.278666)" />
    <polygon
       style="fill:none;fill-opacity:0;stroke:black;stroke-width:0.01"
       points="42.05,3.3 42.55,3.3 42.55,3.05 43.05,3.55 42.55,4.05 42.55,3.8 42.05,3.8 42.05,3.3 "
       id="polygon1914"
       transform="matrix(10.61044,0,0,10.61044,-334.3252,7.278666)" />
    <text
       style="font-size:10.61044025px;font-style:normal;font-weight:700;text-anchor:middle;fill:black;font-family:sans"
       x="75.768326"
       y="36.987896"
       id="text1916">Expanded</text>
    <text
       style="font-size:10.61044025px;font-style:normal;font-weight:700;text-anchor:middle;fill:black;font-family:sans"
       x="75.768326"
       y="47.598339"
       id="text1918">memory</text>
    <text
       style="font-size:10.61044025px;font-style:normal;font-weight:700;text-anchor:middle;fill:black;font-family:sans"
       x="75.768326"
       y="58.208778"
       id="text1920">pages</text>
    <polygon
       style="fill:white"
       points="55.45,5.65 55.45,5.15 55.2,5.15 55.7,4.65 56.2,5.15 55.95,5.15 55.95,5.65 55.45,5.65 "
       id="polygon1922"
       transform="matrix(10.61044,0,0,10.61044,-334.3252,7.278666)" />
    <polygon
       style="fill:none;fill-opacity:0;stroke:black;stroke-width:0.1"
       points="55.45,5.65 55.45,5.15 55.2,5.15 55.7,4.65 56.2,5.15 55.95,5.15 55.95,5.65 55.45,5.65 "
       id="polygon1924"
       transform="matrix(10.61044,0,0,10.61044,-334.3252,7.278666)" />
    <polygon
       style="fill:none;fill-opacity:0;stroke:black;stroke-width:0.01"
       points="55.45,5.65 55.45,5.15 55.2,5.15 55.7,4.65 56.2,5.15 55.95,5.15 55.95,5.65 55.45,5.65 "
       id="polygon1926"
       transform="matrix(10.61044,0,0,10.61044,-334.3252,7.278666)" />
  </g>
</svg>
