<?xml version="1.0" encoding="UTF-8" standalone="no"?>
<!-- Generator: Adobe Illustrator 11.0, SVG Export Plug-In . SVG Version: 6.0.0 Build 78)  -->
<svg
   xmlns:a="http://ns.adobe.com/AdobeSVGViewerExtensions/3.0/"
   xmlns:dc="http://purl.org/dc/elements/1.1/"
   xmlns:cc="http://web.resource.org/cc/"
   xmlns:rdf="http://www.w3.org/1999/02/22-rdf-syntax-ns#"
   xmlns:svg="http://www.w3.org/2000/svg"
   xmlns="http://www.w3.org/2000/svg"
   xmlns:xlink="http://www.w3.org/1999/xlink"
   xmlns:sodipodi="http://inkscape.sourceforge.net/DTD/sodipodi-0.dtd"
   xmlns:inkscape="http://www.inkscape.org/namespaces/inkscape"
   width="540"
   height="540"
   viewBox="0 0 540 540"
   overflow="visible"
   enable-background="new 0 0 540 540"
   xml:space="preserve"
   id="svg2"
   sodipodi:version="0.32"
   inkscape:version="0.43"
   sodipodi:docname="Icon_apps_query.svg"
   version="1.0">
		<g id="Layer_1">
			
				<radialGradient id="path2296_1_" cx="52.4463" cy="712.6221" r="233.7886" fx="52.4463" fy="712.6221" gradientTransform="matrix(-1.5341 9.037443e-003 8.607848e-003 1.4606 344.1891 -883.6924)" gradientUnits="userSpaceOnUse">
				<stop  offset="0" style="stop-color:#FFFFFF"/>
				<stop  offset="0.7778" style="stop-color:#FFF53C"/>
				<stop  offset="0.9588" style="stop-color:#E4DC4D"/>
				<stop  offset="1" style="stop-color:#DDD00A"/>
				<a:midPointStop  offset="0" style="stop-color:#FFFFFF"/>
				<a:midPointStop  offset="0.5" style="stop-color:#FFFFFF"/>
				<a:midPointStop  offset="0.7778" style="stop-color:#FFF53C"/>
				<a:midPointStop  offset="0.5" style="stop-color:#FFF53C"/>
				<a:midPointStop  offset="0.9588" style="stop-color:#E4DC4D"/>
				<a:midPointStop  offset="0.5" style="stop-color:#E4DC4D"/>
				<a:midPointStop  offset="1" style="stop-color:#DDD00A"/>
				</radialGradient>
			
				<circle id="path2296" sodipodi:type="arc" sodipodi:cx="96.925125" sodipodi:cy="161.09625" sodipodi:rx="233.28877" sodipodi:ry="233.28877" fill="url(#path2296_1_)" stroke="#AD8D00" stroke-width="15.8187" cx="269.9" cy="269.8" r="261"/> 
			
				<linearGradient id="XMLID_1_" gradientUnits="userSpaceOnUse" x1="55.8154" y1="889.749" x2="62.8541" y2="283.1093" gradientTransform="matrix(1.0171 0 0 -1.0169 209.1745 781.6147)">
				<stop  offset="0" style="stop-color:#FF8D1D"/>
				<stop  offset="0.5" style="stop-color:#FFDE96"/>
				<stop  offset="1" style="stop-color:#FFEDC5"/>
				<a:midPointStop  offset="0" style="stop-color:#FF8D1D"/>
				<a:midPointStop  offset="0.5" style="stop-color:#FF8D1D"/>
				<a:midPointStop  offset="0.5" style="stop-color:#FFDE96"/>
				<a:midPointStop  offset="0.5" style="stop-color:#FFDE96"/>
				<a:midPointStop  offset="1" style="stop-color:#FFEDC5"/>
			</linearGradient>
			<path fill="url(#XMLID_1_)" d="M270.5,25.7C136.2,25.7,27.1,134.7,27.1,269s109.1,243.3,243.4,243.3
				c134.3,0,243.4-109.1,243.4-243.3S404.8,25.7,270.5,25.7z M270.5,37.9c127.7,0,231.2,103.5,231.2,231.1
				c0,127.6-103.5,231.1-231.2,231.1C142.8,500.1,39.3,396.6,39.3,269C39.3,141.3,142.8,37.9,270.5,37.9z"/>
			
				<linearGradient id="XMLID_2_" gradientUnits="userSpaceOnUse" x1="65.3975" y1="274.6543" x2="54.9622" y2="743.52" gradientTransform="matrix(1.059 0 0 -1.0587 206.0241 803.5343)">
				<stop  offset="0" style="stop-color:#FFFB9B"/>
				<stop  offset="0.5" style="stop-color:#FFF527"/>
				<stop  offset="1" style="stop-color:#FDF46E"/>
				<a:midPointStop  offset="0" style="stop-color:#FFFB9B"/>
				<a:midPointStop  offset="0.5" style="stop-color:#FFFB9B"/>
				<a:midPointStop  offset="0.5" style="stop-color:#FFF527"/>
				<a:midPointStop  offset="0.5" style="stop-color:#FFF527"/>
				<a:midPointStop  offset="1" style="stop-color:#FDF46E"/>
			</linearGradient>
			<path fill="url(#XMLID_2_)" d="M269.9,16.5C130.1,16.5,16.5,130,16.5,269.8s113.6,253.3,253.4,253.3
				c139.8,0,253.4-113.6,253.4-253.3S409.7,16.5,269.9,16.5z M269.9,29.2c132.9,0,240.7,107.7,240.7,240.6S402.8,510.4,269.9,510.4
				C137,510.4,29.2,402.7,29.2,269.8S137,29.2,269.9,29.2z"/>
			
				<radialGradient id="path1352_1_" cx="635.4106" cy="563.7773" r="227.6529" fx="635.4106" fy="563.7773" gradientTransform="matrix(1.620707e-008 0.5708 1.3997 4.679807e-006 -519.0213 -132.6713)" gradientUnits="userSpaceOnUse">
				<stop  offset="0.5393" style="stop-color:#FFFFFF"/>
				<stop  offset="1" style="stop-color:#FFF7BB"/>
				<a:midPointStop  offset="0.5393" style="stop-color:#FFFFFF"/>
				<a:midPointStop  offset="0.5" style="stop-color:#FFFFFF"/>
				<a:midPointStop  offset="1" style="stop-color:#FFF7BB"/>
			</radialGradient>
			<path id="path1352" opacity="0.71" fill="url(#path1352_1_)" d="M275.4,9.2c-109.7,0-203.3,59.8-242,151
				C72,251.4,154.6,311,264.4,311c109.7,0,203.7-64.4,242.4-155.5C468.1,64.3,385.1,9.2,275.4,9.2z"/>
			
				<linearGradient id="XMLID_3_" gradientUnits="userSpaceOnUse" x1="447.0269" y1="41.6982" x2="481.4483" y2="-278.9464" gradientTransform="matrix(1.1107 0.1846 0.1515 -1.0073 -219.8573 64.0173)">
				<stop  offset="0" style="stop-color:#000000"/>
				<stop  offset="1" style="stop-color:#5174A6"/>
				<a:midPointStop  offset="0" style="stop-color:#000000"/>
				<a:midPointStop  offset="0.5" style="stop-color:#000000"/>
				<a:midPointStop  offset="1" style="stop-color:#5174A6"/>
			</linearGradient>
			<linearGradient id="XMLID_4_" gradientUnits="userSpaceOnUse" x1="508.1245" y1="-278.8306" x2="459.6189" y2="46.1582">
				<stop  offset="0" style="stop-color:#000000"/>
				<stop  offset="1" style="stop-color:#453CA6"/>
				<a:midPointStop  offset="0" style="stop-color:#000000"/>
				<a:midPointStop  offset="0.5" style="stop-color:#000000"/>
				<a:midPointStop  offset="1" style="stop-color:#453CA6"/>
			</linearGradient>
			<path fill="url(#XMLID_3_)" stroke="url(#XMLID_4_)" stroke-width="6.424" d="M380.8,212.6c-3,20.2-13.4,38.3-31.2,54.3
				c-17.8,16-46,31.8-84.6,47.4c-7.8,3.1-12.6,11-14.6,23.8c-0.2,1.1-0.1,4.1,0.2,9c0.3,5.1,0.4,8.2,0.2,9.5c-0.4,2.8-3.1,5.2-8,6.9
				c-4.9,1.6-9.9,2-15.2,1.1c-8.4-1.4-14.5-4-18.4-7.9c-3.7-4-6.6-11-8.6-20.9c-2.1-10.1-2.6-18.1-1.7-24.1
				c2.1-13.7,11.8-23.5,29.3-29.1c57.9-19.4,89.5-46.4,94.7-81.2c2.4-16.1-0.8-29.8-9.6-41c-8.8-11.3-20.9-18.3-36.2-20.8
				c-18.1-3-35.2,0.6-51.2,10.7c-9.3,5.9-17.1,8.3-23.6,7.3c-6.3-1-11.7-4.1-16.3-9.3c-4.6-5.1-6.6-9.6-6-13.4
				c2.2-14.5,13.5-25.3,34.1-32.2c20.5-7.1,42.7-8.7,66.4-4.8c33.6,5.6,59.8,19.1,78.6,40.5C377.8,159.8,385.1,184.5,380.8,212.6
				 M252.2,428.1c-0.8,5.2-4.4,9.1-10.9,11.8c-6.5,2.8-13.7,3.6-21.5,2.3c-20.9-3.5-30-14-27.4-31.5c1-6.5,5.1-11.8,12.3-15.9
				c7.3-4.3,14.9-5.8,22.9-4.5c7.3,1.2,13.4,6.2,18.4,15C251.2,413.9,253.2,421.5,252.2,428.1"/>
			<path fill="#AD6D00" d="M269.9,0C121,0,0,121,0,269.8c0,148.8,121,269.8,269.9,269.8c148.9,0,269.9-121,269.9-269.8
				C539.7,121,418.8,0,269.9,0z M269.9,17.7C409.2,17.7,522,130.5,522,269.8S409.2,521.9,269.9,521.9
				c-139.3,0-252.2-112.8-252.2-252.1S130.6,17.7,269.9,17.7z"/>
		</g>
	</svg>
